
        <svg xmlns="http://www.w3.org/2000/svg" xmlns:xlink="http://www.w3.org/1999/xlink" version="1.1" width="3171.4285714285716" 
        height="1374.9304373583032" viewBox="0 0 3171.4285714285716 1374.9304373583032">
			<rect fill="#132c54" width="3171.4285714285716" height="1374.9304373583032"/>
			<g transform="scale(8.571428571428573) translate(10, 10)">
				<defs id="SvgjsDefs1386"></defs><g id="SvgjsG1387" featureKey="1p4tPl-0" transform="matrix(55.9204725971125,0,0,55.9204725971125,107,-0.00048778126607141984)" fill="#fed401"><defs xmlns="http://www.w3.org/2000/svg"></defs><g xmlns="http://www.w3.org/2000/svg"><path class="fil0" d="M0.636937 0.114185l-0.00427262 -0.00202387c0.00134925,0.000562186 0.00277005,0.00124703 0.00427262,0.00202387zm-0.636937 0.853246c0.226357,-0.144042 0.694351,-0.44102 0.497596,-0.761211 -0.242773,-0.395064 -0.412338,0.264524 -0.164629,0.16379 0.0700587,-0.0284875 0.128219,-0.140557 0.0565866,-0.181699 0.0233665,-0.0134516 0.0451896,0.0252779 0.0492475,0.0451691 0.0533873,0.261693 -0.386069,0.224997 -0.272047,-0.0780621 0.133933,-0.355946 0.658882,0.0769787 0.342791,0.465603 -0.194169,0.175678 -0.267141,0.256091 -0.509545,0.346409zm0.632664 -0.85527c0.00146168,0.000654181 0.0028416,0.00135947 0.00427262,0.00202387 0.00698133,0.00320957 0.0137889,0.00656225 0.0204431,0.0100376 0.0305216,0.0159048 0.0577314,0.034416 0.0823245,0.0549307 0.246892,0.205995 0.231876,0.610095 0.702273,0.526636l0.0752512 -0.0078195c-0.0432884,0.0267192 -0.0798203,0.0525491 -0.126676,0.0686583 -0.423541,0.145719 -0.546721,-0.41288 -0.757889,-0.654467zm-0.246033 -0.0966654c0.299431,-0.0757725 0.695936,0.137807 0.87373,0.39444 0.276892,0.399684 0.267764,-0.0365523 0.377503,0.161439 0.138461,0.249795 0.391558,0.117405 0.406318,0.139524 0.117507,0.176199 0.18912,0.175392 0.38983,0.206742 -0.189815,0.00651114 -0.302559,-0.0246749 -0.410345,-0.181218 -0.221256,0.070815 -0.314538,0.00789105 -0.437493,-0.16701 -0.0747197,0.0428693 -0.124018,0.0676975 -0.16929,0.0616054 -0.0327499,-0.00441572 -0.0634044,-0.0250531 -0.100039,-0.0667673 -0.0274654,-0.0312678 -0.0582834,-0.0743722 -0.0958988,-0.131419 -0.175985,-0.266936 -0.518428,-0.436073 -0.834315,-0.417337zm0.556513 0.954869l0.00955717 -0.0565151 0.0114993 -0.0439834c0.337751,0.00671557 0.282555,0.043779 0.583979,-0.0099967l0.0305625 -0.0037411c-0.034876,0.0239185 -0.0162932,0.0134005 -0.0559427,0.0311247l0.00195232 -0.000449749c-0.20297,0.0848799 -0.314824,0.0502288 -0.537215,-0.00390464 -0.023203,0.0552067 -0.00903587,0.025697 -0.0443923,0.087466zm-0.123017 -0.00879055c0.114011,-0.19931 0.0372678,-0.338518 0.134823,-0.230783 0.102778,0.113511 0.389595,0.13748 0.553713,0.0290395 0.157126,-0.103831 0.0604197,0.00299492 0.44149,0.108952l0.0210769 0.00785017c-0.209573,0.00866789 -0.261928,-0.0801371 -0.38753,-0.122812l-0.0507092 0.0402014c-0.196111,0.141845 -0.522486,0.0841849 -0.611138,-0.0555134 -0.0243784,0.063895 -0.0476734,0.191051 -0.101725,0.223065zm0.757378 -0.209798l-0.000235096 -7.1551e-005 -2.04431e-005 3.06647e-005 0.000255539 4.08863e-005zm-0.833538 0.189293c0.0324126,-0.12873 0.0585185,-0.260384 0.0937318,-0.386621 0.0346102,0.183365 6.13294e-005,0.231079 -0.0937318,0.386621zm-0.12595 -0.00292337c0.0860247,-0.199576 0.110209,-0.267601 0.17575,-0.468639 0.0497791,0.179399 -0.0710093,0.342443 -0.17575,0.468639zm-0.181596 0.0205045c0.0426035,-0.0593158 0.108502,-0.149726 0.154611,-0.209 0.0505559,-0.107909 0.179828,-0.353002 0.126574,-0.47932 0.00594895,-0.00278027 0.0113357,0.00407841 0.0140342,0.00869856 0.107694,0.185051 -0.108328,0.55912 -0.295219,0.679622zm-0.114226 -0.00879055c0.18084,-0.27954 0.423173,-0.485382 0.237253,-0.828908l0.00779906 0.00205454 0.0079115 0.0063987c0.278804,0.262408 -0.080178,0.644961 -0.252963,0.820455zm0.187351 -0.328838c-0.00134925,0.00164567 -0.00257584,0.00330157 -0.00394553,0.00494724l0.00638848 -0.00716532 -0.00244296 0.00221808z" style="fill: #fed401;"></path></g></g><g id="SvgjsG1388" featureKey="dYASrj-0" transform="matrix(4.235237595562468,0,0,4.235237595562468,-2.1176176618019884,54.09438612818252)" fill="#ffffff"><path d="M2.44 19.42 c-0.18 0 -0.28 0.04 -0.4 0.06 c-0.18 0 -0.14 0 -0.16 -0.02 l-0.06 0.02 c0 0.06 0.02 0.06 0.06 0.08 c0 -0.02 -0.06 0.04 -0.1 0.12 l0.02 0 c0 0.02 -0.64 0.52 -0.74 0.52 c-0.46 0 -0.46 -0.54 -0.46 -0.62 c0 -0.04 0 -0.04 0.02 -0.1 c0 -2.24 -0.1 -1.9 -0.1 -3.24 c0 0 0.02 -0.02 0.02 -0.04 c0 -0.06 -0.04 -0.16 -0.04 -0.26 c0 -0.18 0.08 -0.3 0.6 -0.3 c0.06 0 0.14 0.06 0.32 0.38 c0 0.1 0.36 0.4 0.4 0.58 c-0.02 0.02 -0.04 0.04 -0.04 0.06 c0 0.08 0.3 0.2 0.3 0.32 c0 0.02 -0.02 0.04 -0.02 0.04 c0 0.12 0.2 0.22 0.2 0.28 c0.24 0.44 0.26 0.42 0.58 0.74 c0.1 0 0.84 1.32 1.4 1.32 c0.72 0.06 0.86 0.32 1.62 0.32 c0.42 0 0.36 -0.02 0.5 -0.1 c-0.04 0.04 -0.02 0.04 -0.04 0.04 c0 0 0.14 -0.2 0.8 -0.2 c0.3 0 0.88 -0.56 1 -0.64 c0.04 -0.04 0.24 -0.12 0.24 -0.16 c0 -0.12 0.42 -0.7 0.48 -0.76 c-0.02 -0.04 -0.02 -0.08 -0.02 -0.1 c0 -0.3 0.32 0.16 0.32 -1.7 c-0.02 -0.06 -0.08 -0.7 -0.22 -0.82 c-0.06 0 -0.06 -0.46 -0.54 -0.78 c0 -0.02 0.02 -0.12 0.02 -0.16 c-0.78 -0.04 -0.38 -0.44 -0.9 -0.44 c-0.98 0 -0.2 -0.3 -1.26 -0.3 c-0.1 -0.1 -0.98 -0.08 -1.18 -0.2 c-0.04 0 -0.18 0.04 -0.22 0.04 c-0.24 0 -0.04 -0.2 -0.58 -0.2 c-1.82 -0.1 -0.84 -0.44 -1.46 -0.44 l0 -0.04 c0.06 0 0.14 -0.02 0.2 0.04 c0 0 0.1 -0.04 0.1 -0.06 c0 0 -0.04 -0.04 -0.04 -0.06 l-0.62 0 c-0.2 -0.18 -0.18 -0.3 -0.34 -0.34 c0 -0.02 -0.22 0.02 -0.56 -0.44 c0 -0.14 -0.44 -0.66 -0.54 -0.74 c-0.18 -0.94 -0.4 -1.5 -0.4 -2.22 c0.04 -0.22 0 -0.5 0.08 -0.64 l0 0.02 c0.02 0 0.1 -0.68 0.16 -0.64 c-0.02 0 -0.04 -0.02 -0.04 -0.04 c0 -0.16 0.42 -0.6 0.42 -0.76 c-0.02 -0.02 -0.02 -0.04 -0.02 -0.04 c0 -0.14 0.32 -0.28 0.32 -0.34 s0.26 -0.48 0.38 -0.56 c-0.02 0.02 -0.02 0.04 -0.02 0.04 c-0.02 0 0.98 -0.66 1 -0.68 c1.22 -0.2 0.16 -0.54 1.52 -0.54 l1.96 0 c0.04 0 0.46 0 0.66 0.16 c0.82 0.04 0.68 0.52 1.04 0.52 c0.66 0 0.48 -0.04 0.68 -0.24 c-0.08 -0.1 0.54 -0.02 0.6 -0.28 l0.26 0 c0.04 0 0.2 0.16 0.22 0.2 c0.06 2.48 0.18 2.42 0.18 3.72 c0 0.1 -0.18 0.16 -0.26 0.32 l-0.28 0 l0 -0.08 c-0.06 0 -0.48 -0.28 -0.48 -0.5 l0 0.02 c-0.02 0 -0.16 -0.5 -0.38 -0.58 l0.02 0 c0 -0.06 -0.26 -0.26 -0.26 -0.4 c-0.3 -0.44 -0.26 -0.42 -0.5 -0.66 l0.02 0 c0 -0.02 -0.5 -0.32 -0.5 -0.46 c0 -0.3 -0.74 -0.66 -0.9 -0.82 c0.06 -0.12 -0.52 -0.28 -1.1 -0.28 c-0.02 0 -0.04 0.02 -0.06 0.02 c-0.2 0 -0.12 -0.34 -0.18 -0.34 c-0.04 0.04 -0.06 0.04 -0.08 0.08 c-0.02 0 -0.1 -0.02 -0.16 -0.04 c-0.12 0.44 -0.32 0.2 -0.38 0.32 c-0.12 -0.06 -0.04 -0.12 -0.12 -0.14 c-0.42 0.2 -0.3 0.18 -1.22 0.64 c-0.6 1.18 -0.28 -0.28 -0.94 1.52 l0 0.88 l0 -0.02 c0.02 0 0.1 0.78 0.28 0.88 c0.04 0.06 0.3 0.26 0.38 0.42 c0.14 0 0.32 0.52 0.9 0.52 c0.24 0.26 1.18 0.2 2.14 0.44 c0.28 0.08 1.74 0.08 2.08 0.48 l-0.02 0 c0 0.04 0.48 0.08 0.56 0.14 c0 -0.04 0.96 0.56 0.96 0.68 c0 0.02 0 0.02 -0.02 0.02 c0.34 0 0.68 0.76 0.82 0.86 c0.1 0.72 0.38 0.5 0.38 1.06 c0.24 0.76 0.2 0.94 0.2 1.88 c-0.06 0.06 -0.1 0.76 -0.2 0.8 c0 1.02 -0.52 0.96 -0.52 1.4 l-0.26 0.24 c0 0.04 -0.02 0.12 -0.02 0.12 c-0.4 0.36 -0.26 0.42 -0.44 0.5 c-0.06 0 -0.16 0.3 -0.5 0.4 c-0.38 0.58 -0.54 0.12 -0.94 0.7 c-1.8 0 0.04 0.44 -1.96 0.44 c-2.28 0 -1.48 -0.06 -2.22 -0.24 c-0.02 0 -0.02 0.02 -0.04 0.02 c-0.12 0 -0.3 -0.16 -0.46 -0.16 c0 -0.02 -0.3 -0.06 -0.3 -0.1 c0 0.02 0.02 0.02 0.02 0.02 c0 -0.02 -0.28 -0.42 -0.5 -0.42 c-0.04 0 -0.08 0.02 -0.12 0.04 z M6.24 20.14 c-0.02 0 -0.02 0.02 -0.02 0.04 c0 0 0 0.02 0.02 0.02 s0.02 -0.02 0.02 -0.02 c0 -0.02 0 -0.04 -0.02 -0.04 z M4.74 20.1 c-0.02 0 -0.02 0.02 -0.02 0.02 c0 0.02 0 0.02 0.02 0.02 s0.02 0 0.02 -0.02 c0 0 0 -0.02 -0.02 -0.02 z M6.64 20.1 c-0.02 0 -0.04 0.02 -0.04 0.04 s0.02 0.04 0.04 0.04 s0.02 -0.02 0.02 -0.04 s0 -0.04 -0.02 -0.04 z M6.2 20.06 c-0.02 0 -0.04 0.02 -0.04 0.04 s0.02 0.04 0.04 0.04 s0.02 -0.02 0.02 -0.04 s0 -0.04 -0.02 -0.04 z M6.64 20.02 c-0.04 0 -0.06 0 -0.06 0.02 l0.02 0.02 l0.04 0 l0 -0.04 z M5.18 20.02 c-0.02 0 -0.02 0 -0.02 0.02 c0 0 0 0.02 0.02 0.02 s0.02 -0.02 0.02 -0.02 c0 -0.02 0 -0.02 -0.02 -0.02 z M6.64 19.88 l0 0.1 c0.04 -0.02 0.08 -0.06 0.1 -0.1 l-0.1 0 z M7.18 19.82 c-0.18 0 -0.18 0.06 -0.18 0.12 c0.02 0 0.06 -0.02 0.1 -0.04 c0.02 0 0.08 0.02 0.12 0.04 l0.08 -0.04 s0 -0.08 -0.12 -0.08 z M4.8 19.84 l0 0.04 l0.08 0 l0 -0.04 l-0.08 0 z M5.8 19.84 c-0.02 0 -0.02 0.02 -0.02 0.04 c0 0 0 0.02 0.02 0.02 s0.02 -0.02 0.02 -0.02 c0 -0.02 0 -0.04 -0.02 -0.04 z M6.36 19.84 c-0.02 0 -0.04 0.02 -0.04 0.04 c0 0 0.02 0.02 0.04 0.02 s0.02 -0.02 0.02 -0.02 c0 -0.02 0 -0.04 -0.02 -0.04 z M4.52 19.72 c-0.02 0 -0.04 0 -0.04 0.02 l0.04 0 l0.02 0 c0 -0.02 0 -0.02 -0.02 -0.02 z M3.9 19.66 c-0.02 0 -0.04 0 -0.06 0.02 z M3.84 19.58 c-0.02 0 -0.04 0.02 -0.04 0.04 s0.02 0.04 0.04 0.04 s0.02 -0.02 0.02 -0.04 s0 -0.04 -0.02 -0.04 z M3.9 19.56 c-0.02 0 -0.02 0.02 -0.02 0.04 c0 0 0 0.02 0.02 0.02 s0.02 -0.02 0.02 -0.02 c0 -0.02 0 -0.04 -0.02 -0.04 z M1.04 19.52 c-0.02 0 -0.04 0.02 -0.04 0.04 c0 0 0.02 0.02 0.04 0.02 l0.02 -0.02 c0 -0.02 -0.02 -0.04 -0.02 -0.04 z M3.84 19.52 c-0.02 0 -0.04 0.02 -0.04 0.04 c0 0 0.02 0.02 0.04 0.02 s0.02 -0.02 0.02 -0.02 c0 -0.02 0 -0.04 -0.02 -0.04 z M0.76 19.46 c-0.02 0 -0.04 0.02 -0.04 0.02 c0 0.02 0.02 0.04 0.04 0.04 c0 0 0.02 -0.02 0.02 -0.04 z M4 19.48 l-0.04 0 c0 0.02 0 0.04 0.02 0.04 c0 0 0.02 -0.02 0.02 -0.04 z M7.92 19.46 c-0.02 0 -0.02 0.02 -0.02 0.02 l0.04 0 c0 0.02 0 -0.02 -0.02 -0.02 z M0.76 19.12 l0 -0.08 l0 0.08 z M8.84 19.08 c-0.02 0 -0.04 0.02 -0.04 0.04 l0.06 0 c0 -0.02 -0.02 -0.04 -0.02 -0.04 z M9.12 18.84 l0 0.04 l0.02 0 z M9.06 18.78 c-0.02 0 -0.04 0.02 -0.04 0.04 c0 0 0.02 0.02 0.04 0.02 s0.02 -0.02 0.02 -0.02 c0 -0.02 0 -0.04 -0.02 -0.04 z M9.18 18.8 l0.04 -0.02 z M9.3 18.68 l0 0 l-0.04 0.04 c0.02 -0.02 0.02 -0.04 0.04 -0.04 z M0.82 18.66 c-0.02 0 -0.04 0 -0.04 0.02 c0 0 0.04 0 0.04 -0.02 l0 0 z M0.76 18.46 l0 0.12 l0.02 0 c0 -0.02 0 -0.1 -0.02 -0.12 z M9.92 18.02 c-0.02 0 -0.02 0.02 -0.02 0.02 s0 0.02 0.02 0.02 s0.02 -0.02 0.02 -0.02 s0 -0.02 -0.02 -0.02 z M9.3 16.38 l0.04 0.02 l0.04 -0.02 l-0.08 0 z M0.76 16.06 l-0.04 0 c0 0.02 0 0.04 0.02 0.04 c0 0 0.02 -0.02 0.02 -0.04 z M10.72 15.719999999999999 l0 -0.02 c-0.02 0 -0.02 0 -0.02 0.02 s0 0.04 0.02 0.04 l0 -0.04 z M2.32 12.34 c-0.02 0 -0.04 0.02 -0.04 0.04 s0.02 0.04 0.04 0.04 s0.02 -0.02 0.02 -0.04 s0 -0.04 -0.02 -0.04 z M1.5 11.48 c-0.02 0 -0.04 0.02 -0.04 0.04 c0 0 0.02 0.02 0.04 0.02 l0.02 -0.02 c0 -0.02 -0.02 -0.04 -0.02 -0.04 z M7.92 11.28 c-0.02 0 -0.02 0.02 -0.02 0.04 c0 0 0 0.02 0.02 0.02 s0.02 -0.02 0.02 -0.02 c0 -0.02 0 -0.04 -0.02 -0.04 z M1.26 11.2 l0 0.04 l0.04 -0.04 l-0.04 0 z M3.16 11.02 c0 0 -0.02 0 -0.02 0.02 l0.04 0 c0 -0.02 -0.02 -0.02 -0.02 -0.02 z M5.14 10.76 c-0.04 0 -0.14 0.04 -0.14 0.06 s0.02 0.02 0.02 0.02 c0.04 0 0.08 -0.04 0.12 -0.08 z M0.88 10.18 c-0.02 0 -0.04 -0.02 -0.04 0.1 c0 0.02 0.02 0.06 0.02 0.06 c0.02 0 0.04 -0.04 0.04 -0.06 c0 -0.04 -0.02 -0.08 -0.02 -0.1 z M0.82 9.98 c-0.02 0 -0.04 0.02 -0.04 0.04 s0.02 0.04 0.04 0.04 l0 -0.08 z M9.38 6.460000000000001 c-0.02 0 -0.04 0.02 -0.04 0.04 c0 0 0.02 0.02 0.04 0.02 s0.02 -0.02 0.02 -0.02 c0 -0.02 0 -0.04 -0.02 -0.04 z M9.66 6.460000000000001 c-0.02 0 -0.02 0.02 -0.02 0.04 c0 0 0 0.02 0.02 0.02 s0.02 -0.02 0.02 -0.02 c0 -0.02 0 -0.04 -0.02 -0.04 z M9.74 6.460000000000001 c-0.02 0 -0.04 0.02 -0.04 0.04 c0 0 0.02 0.02 0.04 0.02 l0.02 -0.02 c0 -0.02 -0.02 -0.04 -0.02 -0.04 z M5.26 6.02 l0 -0.22 c0.02 -0.02 0.06 -0.04 0.08 -0.06 l0.04 0.04 c0 0.06 -0.08 0.16 -0.08 0.28 z M9.66 5.9399999999999995 c-0.02 0 -0.02 0.02 -0.02 0.04 c0 0 0 0.02 0.02 0.02 s0.02 -0.02 0.02 -0.02 c0 -0.02 0 -0.04 -0.02 -0.04 z M3.1 5.84 c-0.1 0.02 -0.1 0.1 -0.1 0.1 c0.02 -0.02 0.1 -0.06 0.1 -0.08 l0 -0.02 z M2.62 5.74 c0 0.04 0.06 0.06 0.1 0.06 c-0.02 -0.06 -0.1 -0.06 -0.12 -0.06 l0.02 0 z M9.58 5.779999999999999 c0.02 0.02 0.04 0.02 0.06 0.02 c0.08 0 0.1 -0.06 0.1 -0.12 z M2.94 5.619999999999999 c-0.06 0 -0.04 0.06 -0.04 0.12 l0.04 0 l0 -0.12 z M6.9 5.4399999999999995 c-0.06 0.1 -0.04 0.18 -0.04 0.26 c0.08 -0.02 0.1 -0.12 0.1 -0.22 c-0.02 -0.02 -0.02 -0.04 -0.06 -0.04 z M2.94 5.52 c-0.02 0 -0.04 0 -0.04 0.02 l0.04 0 l0.02 0 c0 -0.02 0 -0.02 -0.02 -0.02 z M9.38 5.48 c0 -0.02 -0.02 -0.02 -0.06 -0.02 c-0.02 0 -0.04 0 -0.04 0.02 s0.02 0.04 0.04 0.04 c0.04 0 0.06 -0.02 0.06 -0.04 z M9.46 5.42 c-0.02 0 -0.04 0.02 -0.04 0.02 l0.02 0 l0.02 0 l0 -0.02 z M7.48 5.42 l-0.02 -0.02 z M6.24 5.4 c0 -0.02 -0.02 -0.02 -0.02 -0.02 s-0.02 0 -0.02 0.02 s0.02 0.02 0.02 0.02 s0.02 0 0.02 -0.02 z M8.96 5.4 c0 -0.02 -0.02 -0.02 -0.02 -0.02 c-0.02 0 -0.02 0 -0.02 0.02 s0 0.02 0.02 0.02 c0 0 0.02 0 0.02 -0.02 z M9.22 5.359999999999999 c-0.02 0 -0.04 0.02 -0.04 0.04 c0 0 0.02 0.02 0.04 0.02 s0.02 -0.02 0.02 -0.02 c0 -0.02 0 -0.04 -0.02 -0.04 z M9.66 5.32 l0 0.08 l0.04 -0.04 z M3.58 5.16 c0 0.06 0.04 0.14 0.04 0.2 l0.04 -0.1 s-0.02 -0.08 -0.04 -0.14 z M7.1 5.24 c-0.02 0 -0.04 0.02 -0.04 0.02 s0.02 0.02 0.04 0.02 s0.02 -0.02 0.02 -0.02 s0 -0.02 -0.02 -0.02 z M9.28 5.119999999999999 c-0.06 0.02 -0.08 0.08 -0.1 0.14 c0.12 0 0.1 -0.06 0.1 -0.14 z M9.66 5.24 l0 0.02 l0.04 0 z M9.66 5.119999999999999 c-0.02 0 -0.02 0.02 -0.02 0.02 c0 0.02 0 0.02 0.02 0.02 s0.02 0 0.02 -0.02 c0 0 0 -0.02 -0.02 -0.02 z M5.48 5.039999999999999 c-0.02 0.06 0.1 0.08 0.1 0.08 c0.04 -0.06 0.24 0.02 0.22 -0.08 l-0.32 0 z M6.74 5.08 l-0.04 0 c0 0.02 0 0.04 0.02 0.04 c0 0 0.02 -0.02 0.02 -0.04 z M4.36 5 l0 0.04 l0.08 0 l0 -0.04 l-0.08 0 z M4.74 4.960000000000001 c-0.06 0 -0.14 0.06 -0.16 0.08 l0.16 0 l0 -0.08 z M6.24 5 l0 0.04 l0.12 0 z M11.72 19.74 c0 -0.02 0.1 -0.26 0.24 -0.26 l1.08 0.02 c-0.14 0 0.26 0.12 0.26 -0.5 c0 -0.04 -0.02 -0.5 -0.02 -0.52 c0 0 0 -0.02 0.02 -0.06 c0 -0.1 -0.02 -0.48 -0.02 -0.64 c0 -0.38 0.02 -0.5 0.02 -0.62 c-0.02 -0.28 -0.06 -0.68 -0.06 -0.88 l0 -1.24 c0 -0.04 0.04 -0.14 0.04 -0.16 c0 -0.8 -0.04 -1 -0.04 -1.06 c0 -0.2 0.04 -0.5 0.04 -0.82 c0 -0.26 0 -0.24 -0.04 -0.32 l0 -2.96 c0 -0.22 0.08 -0.44 0.08 -0.66 c0 -0.04 -0.08 -0.16 -0.08 -0.4 s0.04 -0.74 0.04 -1.3 c0 -0.86 -0.1 -1.7 -0.1 -1.86 c-0.2 -0.16 -0.26 -0.12 -0.28 -0.14 c-0.16 0 -0.58 0.06 -1.08 0.06 c-0.2 0 -0.38 -0.04 -0.38 -0.26 c0 -0.3 0.1 -0.36 0.24 -0.36 c1.06 0 1.52 0.02 1.8 0.02 c0.96 0 0.92 -0.1 1.42 -0.1 c0.1 0 0.66 -0.04 0.7 0.1 l0 4.9 c0 0.12 0.02 0.28 0.02 0.38 c0 0.46 -0.02 0.56 -0.02 1.2 c0 0.54 0.02 1.3 0.12 1.32 c0.26 0 0.2 0.02 0.26 -0.14 c0 0 0 0.02 0.02 0.02 c0.04 0 0.04 -0.28 0.42 -0.6 c0.24 0 0.28 -0.48 0.58 -0.48 c0.7 0 -0.2 -0.1 1.1 -0.38 c0 -0.1 0.48 0.02 0.64 -0.12 c0.18 0 0.86 0.08 1.02 0.08 c0.12 0.36 0.46 -0.26 1.62 0.94 c0 0.14 0.16 0.08 0.36 1.48 c0 0.02 -0.02 0.32 -0.02 0.36 c0 0.24 0 1.38 0.02 1.64 l0 2.12 c0 0.04 -0.02 0.1 -0.02 0.12 c0.02 0.42 0.04 0.74 0.04 1.14 c0 0.04 -0.02 0.22 -0.02 0.24 c-0.02 0 -0.02 0 -0.02 0.02 c0 0.04 0.02 0.12 0.04 0.12 c0.7 0.38 1.1 0.02 1.6 0.42 c0 0.14 -0.02 0.16 -0.1 0.26 c-0.04 -0.02 -0.06 -0.06 -0.08 -0.1 l-0.18 0.06 c0.04 0.06 0.1 0.1 0.18 0.1 l-2.7 0.02 c-0.04 -0.02 -0.08 -0.04 -0.1 -0.04 c-0.08 0 -0.16 0.04 -0.22 0.04 l-2.22 0 c-0.06 -0.06 -0.14 -0.24 -0.14 -0.34 l0.2 -0.12 c0.08 -0.02 0.94 -0.04 1.06 -0.04 c0 -0.04 0 -0.04 0.02 -0.04 s0.08 0.04 0.14 0.04 c0.1 0 0.2 -0.12 0.2 -0.64 c0 -0.32 -0.06 -1.5 -0.06 -6 c0 -0.12 0.06 -1.22 -1.32 -1.22 l0 0 s-0.24 0.06 -0.48 0.06 c-1.3 0.6 -0.98 0.88 -1.46 1.36 c0 0.12 -0.26 0.46 -0.26 0.74 c0 0.04 -0.22 0.52 -0.22 0.8 l0.02 2.5 c0 0.66 -0.04 2.48 0.3 2.48 c0.12 0 0.22 -0.02 0.26 -0.04 l0.86 0 c0.04 0 0.18 0.08 0.18 0.12 l0 0.26 l-0.1 0.08 c-0.56 0 -2.76 0.08 -3.42 0.08 c-0.28 0 -0.7 -0.04 -1.22 -0.04 c-0.14 0 -0.28 0.04 -0.48 0.04 c-0.04 -0.06 -0.3 0.04 -0.3 -0.28 z M12.3 19.82 c0.04 -0.02 -0.12 0 -0.12 0.1 l0.12 0 l0 -0.1 z M18.26 19.92 l0.04 -0.02 z M18.62 19.86 l0 0.04 l0.04 0 z M22.380000000000003 19.76 c-0.06 0 -0.06 0.02 -0.06 0.06 l0 0.08 c0.08 0 0.06 -0.08 0.06 -0.14 z M11.82 19.78 c-0.02 0 -0.02 0.02 -0.02 0.04 s0 0.04 0.02 0.04 s0.02 -0.02 0.02 -0.04 s0 -0.04 -0.02 -0.04 z M22.660000000000004 19.76 l0 0.06 c0.06 -0.06 0.02 -0.06 0.04 -0.06 l-0.04 0 z M18.580000000000002 19.76 c-0.02 0 -0.04 0.02 -0.04 0.04 c0 0 0.02 0.02 0.04 0.02 s0.02 -0.02 0.02 -0.02 c0 -0.02 0 -0.04 -0.02 -0.04 z M22.060000000000002 19.74 l0.04 0.04 c0.06 0 0.06 -0.02 0.06 -0.04 s-0.02 -0.06 -0.02 -0.08 l0.02 -0.02 c-0.06 0 -0.08 0.04 -0.1 0.1 z M23.160000000000004 19.56 c-0.02 0 -0.04 0.02 -0.04 0.04 s0.02 0.04 0.04 0.04 s0.02 -0.02 0.02 -0.04 s0 -0.04 -0.02 -0.04 z M13.440000000000001 17.2 c-0.02 0 -0.04 0 -0.04 0.02 l0.04 0 l0.02 0 c0 -0.02 0 -0.02 -0.02 -0.02 z M26.92 19.76 c-0.02 0 0 -0.02 0.04 -0.12 c-0.12 -0.08 -0.14 -0.26 -0.16 -0.26 c-0.12 0 -0.16 0.38 -0.14 0.42 c-0.1 0 -0.44 -0.18 -0.44 -0.22 c0 -0.02 0.02 0.06 -0.06 0.06 s-0.3 -0.12 -0.92 -0.74 c-0.1 -0.12 -0.24 -0.24 -0.24 -0.28 c0.02 -0.06 -0.36 -0.28 -0.36 -0.5 c-0.24 -0.12 -0.32 -0.62 -0.54 -0.8 l0.02 0 s-0.42 -0.72 -0.42 -1.52 c0 -0.08 0.04 -0.54 0.04 -0.64 c0 -0.9 0.56 -1.34 0.56 -1.68 c0 -0.22 0.56 -0.58 0.78 -1.14 c0 -0.08 0.82 -0.74 0.86 -0.78 c0.3 0 0.46 -0.46 0.88 -0.46 c0.16 0.04 0.88 -0.32 1.28 -0.32 l0.94 0 c0.14 0 0.34 0.1 0.58 0.1 c-0.02 0 -0.02 -0.02 -0.02 -0.02 c0.04 0 0.3 0.16 0.66 0.22 c0 -0.02 0.02 -0.02 0.04 -0.02 c0.12 0 0.36 0.24 0.46 0.26 l0 0 s0.12 0.1 0.82 0.62 l-0.02 0.02 s0.18 -0.02 0.96 0.94 c0.18 0.38 0.38 0.62 0.52 0.98 c0.04 0.04 0.34 0.62 0.34 1.16 c0 1.5 -0.5 1.82 -0.54 2.54 c0.02 0.14 -0.28 0.22 -0.32 0.52 c0 0.1 -0.32 0.26 -0.74 0.86 l0 0 c-0.08 0 -0.76 0.68 -0.9 0.68 c0 -0.02 -0.02 -0.04 -0.04 -0.04 c-0.08 0 -0.34 0.36 -0.74 0.36 l-0.08 -0.04 c-0.16 0 -0.12 0.2 -0.36 0.2 c-0.26 0 -0.22 -0.06 -0.36 -0.06 c0 0.2 -0.18 0.04 -0.26 0.2 l-1.02 0 c-0.34 -0.12 -1.12 0 -1.1 -0.5 z M28.840000000000003 20.16 l0.04 0.02 l0.04 -0.02 l-0.04 -0.04 z M29.78 20 c-0.04 0 -0.06 0.02 -0.1 0.02 l0.02 0.02 c0.02 0 0.04 -0.02 0.12 -0.04 l-0.04 0 z M30.48 19.68 c-0.02 0 -0.06 0.04 -0.08 0.06 l0.08 0 l0 -0.06 z M27.880000000000003 19.56 c0.2 0 0.3 0.12 0.66 0.14 c0 -0.06 0.02 -0.02 0.42 -0.1 c0.04 0 0.22 0.04 0.24 0.04 c0.16 0 0.04 -0.12 0.38 -0.12 c0.46 -0.32 0.38 -0.14 0.82 -1.02 l0 0.02 c0.02 0 0.18 -1.6 0.18 -1.86 c0 -0.14 -0.1 -0.22 -0.1 -0.34 l0.04 -0.12 c-0.02 -0.08 -0.06 -0.2 -0.06 -0.26 c0 -0.36 0.16 -0.28 0.16 -0.7 c0 -1.62 -0.12 -2.12 -0.28 -2.9 c0 -0.84 -1.58 -0.94 -1.7 -1.02 c-0.68 0.08 -1.12 0.02 -1.56 0.48 c0 0 -0.32 0.24 -0.32 0.62 c0 0.64 -0.24 0.68 -0.24 1.2 s-0.02 1.38 -0.02 1.52 c0 3.04 0.12 2.84 0.32 3.48 c0.02 0 0.2 0.94 1.04 0.94 l0.02 0 z M29.720000000000002 19.64 c-0.02 0 -0.04 0.02 -0.04 0.04 s0.02 0.04 0.04 0.04 c0 0 0.02 -0.02 0.02 -0.04 s-0.02 -0.04 -0.02 -0.04 z M30.220000000000002 19.56 c0 0 -0.02 0.02 -0.02 0.04 s0.02 0.04 0.02 0.04 c0.02 0 0.02 -0.02 0.02 -0.04 s0 -0.04 -0.02 -0.04 z M24.28 17.36 c0 -0.02 -0.02 -0.02 -0.02 -0.02 c-0.02 0 -0.02 0 -0.02 0.02 s0 0.04 0.02 0.04 c0 0 0.02 -0.02 0.02 -0.04 z M24.18 15.42 c-0.02 0 -0.04 0.02 -0.04 0.04 c0 0 0.02 0.02 0.04 0.02 s0.02 -0.02 0.02 -0.02 c0 -0.02 0 -0.04 -0.02 -0.04 z M23.94 15.26 c-0.02 0 -0.02 0.02 -0.02 0.04 c0 0 0 0.02 0.02 0.02 s0.02 -0.02 0.02 -0.02 c0 -0.02 0 -0.04 -0.02 -0.04 z M30.64 11.6 c-0.08 0 -0.08 0.04 -0.12 0.04 c0.06 0 0.12 0.02 0.12 -0.04 z M29.86 11.24 c-0.02 0.04 0.02 0.04 0.08 0.06 c0.02 0 0.06 0 0.08 -0.02 c-0.06 -0.02 -0.12 -0.04 -0.14 -0.04 l-0.02 0 z M27.12 11.2 l0.02 -0.02 z M27.900000000000002 10.98 c0.04 -0.02 -0.12 0.02 -0.16 0.04 l0 0.06 c0.1 0 0.16 0.02 0.16 -0.1 z M28.060000000000002 11.02 l0 0.06 c0.02 0 0.02 -0.02 0.02 -0.02 c0 -0.02 0 -0.04 -0.02 -0.04 z M34.400000000000006 20.02 l-0.1 -0.12 l0 -0.34 c0 -0.04 0.14 -0.18 0.16 -0.2 l1.32 0 c0.06 -0.04 0.14 -0.1 0.16 -0.16 l0 -1.14 c0.04 0 0.06 -0.06 0.06 -0.1 s-0.06 -0.3 -0.06 -0.38 l0 -5.44 c0 -0.3 -0.12 -0.34 -0.2 -0.46 l-0.82 0 c-0.08 0.04 -0.14 0.04 -0.18 0.04 c-0.66 0 -0.68 -0.12 -0.68 -0.3 c0 -0.36 0.88 -0.4 1.48 -0.4 c0.44 0 0.46 0.02 0.9 0.02 c1.22 0 1.18 -0.1 1.44 -0.1 c0.2 0 0.48 0 0.48 0.42 c0 0.08 0.08 0.56 0.08 0.62 c0 0 0 0.06 -0.04 0.1 c0 0.3 0.04 0.46 0.14 0.46 c0.12 0 0.28 -0.32 0.36 -0.46 c0 -0.16 0.76 -0.76 0.88 -0.88 c0.16 0 0.64 -0.34 0.96 -0.34 c0.48 0 0.58 0.02 0.8 0.02 s1.2 0.5 1.2 1.1 l0 0.64 c0 0.44 -0.24 0.54 -0.46 0.78 c-0.14 0.04 -0.5 0.38 -0.74 0.38 c-0.92 0 -1.44 -0.74 -1.44 -1.54 c0.12 0.06 -0.16 -0.16 -0.16 -0.24 c-0.44 0 -0.64 0.7 -0.88 0.7 c-0.08 0 -0.2 0.42 -0.28 0.5 c-0.02 0.64 -0.34 0.34 -0.34 1.32 l0 0.92 l0.04 0.12 c0 0.14 -0.04 0.22 -0.04 0.34 c0 0.2 0.08 2.24 0.08 3.12 c0 0.2 0.16 0.18 0.16 0.34 c0.68 0 0.82 -0.04 1 -0.04 c0.66 0 0.74 0.02 0.74 0.4 c-0.02 0.02 0 0.1 -0.06 0.14 l0 -0.02 c-0.04 0 -0.24 0.2 -0.5 0.2 c-0.46 0 0.02 -0.08 -1.16 -0.08 c-0.26 0 -0.96 0.04 -0.96 0.04 l-0.4 0 s-0.2 -0.04 -0.28 -0.04 c-0.1 0 -0.62 0.04 -0.62 0.04 l-1.14 0.02 c-0.14 0 -0.3 0.1 -0.34 0.1 c-0.18 0 -0.36 -0.1 -0.56 -0.1 z M34.36000000000001 19.68 c0 0.08 0.1 0.26 0.1 0.28 l0.1 0 c0 -0.06 -0.12 -0.26 -0.2 -0.28 z M34.940000000000005 19.86 c0 0.1 0.1 0.06 0.12 0.1 c0.04 0 0.12 -0.04 0.12 -0.04 c-0.06 0 -0.16 -0.06 -0.24 -0.06 z M35.82000000000001 19.9 l0 0.02 l0.02 0 z M35.46000000000001 19.86 c-0.02 0 -0.04 0.02 -0.04 0.02 c0 0.02 0.02 0.02 0.04 0.02 s0.02 0 0.02 -0.02 c0 0 0 -0.02 -0.02 -0.02 z M39.940000000000005 19.84 c0 0.04 0 0.06 0.06 0.06 s0.1 -0.02 0.12 -0.1 c0 -0.02 0 -0.02 -0.02 -0.06 c-0.04 0.12 -0.06 0.1 -0.16 0.1 z M39.02 19.84 c0.02 0.02 0.06 0.02 0.04 0.04 c0.02 0 0.06 -0.02 0.08 -0.08 l-0.04 -0.06 c-0.06 0.02 -0.02 0.06 -0.08 0.1 z M40.28 19.6 c-0.04 0.02 -0.04 0.04 -0.04 0.08 l0.04 0 l0 -0.08 z M34.980000000000004 19.6 l0 0.04 l0.04 0 l0 -0.04 l-0.04 0 z M34.56 19.56 c0 -0.02 -0.02 -0.02 -0.02 -0.02 c-0.02 0 -0.02 0 -0.02 0.02 l0.04 0 z M41.800000000000004 13.559999999999999 c-0.06 0.02 -0.12 0.04 -0.12 0.06 l0.12 -0.02 l0 -0.04 z M42.220000000000006 13.14 l0.02 0.1 l0.04 -0.08 l0 -0.02 l-0.06 0 z M34.84 11.64 c0 -0.02 0 -0.02 -0.02 -0.02 s-0.04 0 -0.04 0.02 l0.04 0 l0.02 0 z M35.02 11.52 c-0.04 0.02 -0.06 0.04 -0.06 0.06 l0.02 0.02 l0.04 0 l0 -0.08 z M35.18000000000001 11.52 c0.04 0.04 0.02 0.06 0.04 0.04 l0 -0.04 l-0.04 0 z M35.38 11.56 c0 -0.02 0 -0.02 -0.02 -0.02 c0 0 -0.02 0 -0.02 0.02 s0.02 0.04 0.02 0.04 c0.02 0 0.02 -0.02 0.02 -0.04 z M34.52 11.28 l0.1 0.12 c0.02 0 0.1 -0.02 0.16 -0.04 c0.12 0 0.26 0.04 0.3 0.04 s0.14 -0.02 0.14 -0.08 c-0.08 -0.06 -0.28 -0.08 -0.66 -0.08 z M34.24 11.32 l0.04 0.04 c0.02 0 0.02 0 0.04 -0.04 l-0.02 -0.02 z M38.120000000000005 11.14 c-0.04 0.02 -0.08 0 -0.08 0.1 l0 0.04 c0.08 0 0.08 -0.12 0.08 -0.14 z M46.720000000000006 20.12 l0 -0.04 c-0.26 0 -0.48 -0.12 -0.66 -0.12 c-0.78 -0.34 -0.62 -0.22 -0.94 -0.4 c-0.02 0.02 -0.02 0.02 -0.04 0.02 c-0.12 0 -0.42 -0.4 -0.52 -0.4 c-0.24 0 -0.62 -0.56 -0.78 -0.76 c0 -0.12 -0.42 -0.44 -0.42 -0.62 c0.02 0 0.02 -0.02 0.02 -0.04 c0 -0.08 -0.22 -0.18 -0.22 -0.26 c0 -0.56 -0.24 -0.92 -0.24 -1.34 c0 -0.82 -0.02 -1.28 0.12 -1.72 c-0.02 0 -0.04 -0.02 -0.04 -0.04 c0 -0.12 0.28 -0.4 0.28 -0.64 c0 -0.02 -0.02 -0.04 -0.02 -0.06 c0 -0.12 0.36 -0.4 0.36 -0.64 c0.38 -0.38 0.04 -0.22 0.72 -0.88 c0 0.02 0.02 0.02 0.02 0.02 c0.1 0 0.08 -0.5 0.46 -0.5 c0.14 -0.38 0.4 -0.24 0.58 -0.42 c0 0.02 -0.02 0.02 -0.02 0.02 s0.16 -0.32 0.72 -0.32 c0.1 0 0.9 -0.32 1.36 -0.32 c0.24 0 0.88 0.12 1.12 0.12 l0 0.04 c0.04 0 0.34 0.16 0.5 0.16 c0.02 0 0.02 -0.02 0.04 -0.02 c0.12 0 0.32 0.28 0.56 0.28 c-0.02 0 -0.02 0 -0.02 0.02 s0.34 0.12 0.44 0.2 c0.12 0 0.3 0.38 0.52 0.38 l-0.02 -0.02 c0.44 0.58 0.98 1.44 0.98 1.9 l0 0.68 c-0.18 0.12 -0.28 0.42 -0.5 0.42 c0 -0.02 -0.02 -0.04 -0.02 -0.04 c-0.04 0 -0.1 0.08 -0.28 0.08 c-0.12 0 -0.32 -0.04 -0.6 -0.2 c-0.06 0 0 0.04 -0.5 0.04 l0 -0.04 l-0.36 0 l-0.08 0.04 c-0.44 0 -0.78 -0.1 -1.26 -0.1 c0 0 -0.34 0.02 -0.46 0.02 c-0.04 0 -0.2 -0.06 -0.24 -0.06 c-0.06 0 -0.24 0.04 -0.32 0.06 l-1.08 0 l-0.06 0.04 c-0.02 0 -0.02 -0.02 -0.02 -0.02 c-0.1 0 -0.2 0.66 -0.22 0.66 s-0.02 0.02 -0.02 0.02 c0 0.02 0.06 0.06 0.06 0.24 l0 1.18 l0 0 s-0.02 0.18 -0.02 0.46 c0 0.52 0.06 1.34 0.34 1.54 c0 -0.02 0 -0.04 0.02 -0.04 s0 0.82 1.2 0.82 c1.58 0 1.68 -0.26 1.92 -0.26 l-0.04 0 c0 -0.02 0.78 -0.02 1.38 -1.06 c0 0 0.42 -0.42 0.42 -0.68 c0 -0.5 0.38 -0.66 0.4 -0.7 c0.44 0 0.26 0.12 0.36 0.2 c0 0.18 -0.02 0.16 -0.06 0.18 c-0.18 0 -0.16 -0.26 -0.22 -0.26 c-0.1 0 -0.12 0.08 -0.12 0.12 c0 0.16 0.18 0.16 0.18 0.28 l0.06 -0.04 c0.06 0 0.1 0 0.1 0.08 c0 0.22 -0.32 1.04 -0.58 1.04 c-0.04 0 -0.14 -0.06 -0.2 -0.06 l0 0.3 l0.04 0.02 l0 -0.02 c-0.04 0 -0.2 0.54 -0.48 0.54 c0 0.06 -0.38 0.44 -0.58 0.44 c0 0 0 -0.04 -0.02 -0.04 c-0.04 0 -0.3 0.36 -0.72 0.36 c0 0.08 -1.16 0.2 -2.1 0.2 z M47.580000000000005 19.96 c0.02 0 0.1 0.14 0.16 0.14 c0.02 0 0.04 -0.02 0.08 -0.14 c0 -0.04 -0.2 -0.04 -0.18 -0.04 c-0.04 0 -0.04 0 -0.06 0.04 z M46.620000000000005 19.92 c0.02 0.06 0 0.1 0.12 0.1 c0 0 0.02 -0.02 0.04 -0.06 c-0.02 -0.04 -0.14 -0.02 -0.16 -0.04 z M47.980000000000004 19.96 c-0.02 0 -0.04 0.02 -0.04 0.04 s0.02 0.04 0.04 0.04 l0 -0.08 z M48.02 19.88 l0.04 0.04 l0.04 -0.04 l-0.08 0 z M49.56 19.48 c-0.12 0 -0.32 0.24 -0.32 0.32 c0.14 0 0.32 0.04 0.32 -0.32 z M43.660000000000004 17.92 l-0.04 0.02 l0.06 0 z M50.900000000000006 17.92 c0 -0.02 -0.02 -0.02 -0.02 -0.02 c-0.02 0 -0.02 0 -0.02 0.02 s0 0.02 0.02 0.02 c0 0 0.02 0 0.02 -0.02 z M50.92 17.84 c0 -0.02 0 -0.02 -0.02 -0.02 l0 0.06 c0.02 0 0.02 -0.02 0.02 -0.04 z M51.24 17.58 c-0.02 0 -0.02 0.02 -0.02 0.04 c0 0 0 0.02 0.02 0.02 s0.02 -0.02 0.02 -0.02 c0 -0.02 0 -0.04 -0.02 -0.04 z M48.06 14.5 c0 -0.02 -0.02 -0.02 -0.02 -0.02 c-0.02 0 -0.02 0 -0.02 0.02 s0 0.02 0.02 0.02 c0 0 0.02 0 0.02 -0.02 z M47.28 14.440000000000001 l0 0.02 l0.04 0 z M45.620000000000005 13.620000000000001 c0 0.08 0.1 0.38 0.16 0.38 l0.1 0.04 l2.8 0 c0.18 0 0.38 -0.18 0.38 -0.48 c0 -0.1 -0.04 -0.26 -0.04 -0.36 c0 -0.06 0.04 -0.18 0.04 -0.3 c0 -0.2 -0.06 -0.4 -0.06 -0.56 c0 0.02 -0.08 -0.46 -0.48 -0.8 c0 0.02 0 0.02 -0.02 0.02 c-0.04 0 -0.34 -0.32 -0.78 -0.32 c-1.32 0 -1 0.02 -1.82 0.58 c-0.04 0.68 -0.28 -0.32 -0.28 1.8 z M45.68000000000001 11.7 l-0.04 0.02 l0.08 0 z M47.900000000000006 10.98 c0 0.02 -0.02 0.02 -0.02 0.04 s0.06 0.04 0.1 0.04 c0.02 0 0.02 0 0.04 -0.04 c-0.04 -0.02 -0.08 -0.04 -0.1 -0.04 l-0.02 0 z M46.800000000000004 11.02 c0 -0.02 -0.02 -0.02 -0.04 -0.02 c0 0 -0.02 0 -0.02 0.02 s0.02 0.04 0.02 0.04 c0.02 0 0.04 -0.02 0.04 -0.04 z M48.260000000000005 11.02 c0 -0.02 -0.02 -0.02 -0.06 -0.02 c-0.02 0 -0.04 0 -0.04 0.02 s0.02 0.04 0.04 0.04 c0.04 0 0.06 -0.02 0.06 -0.04 z M65.34 19.86 c0 -0.12 0.06 -0.16 0.06 -0.18 c-0.08 0 -0.08 0 -0.12 0.02 c-0.16 0 -0.44 -0.16 -0.56 -0.16 c-1.02 -0.82 -1.14 -1.18 -1.34 -1.52 c0 -0.26 -0.26 -0.36 -0.26 -0.98 c-0.1 -1.62 -0.22 -3.18 -0.22 -4.54 c0 -1.28 0.02 -1.76 0.02 -2.32 c0 -0.16 -0.02 -2.74 -0.02 -4.36 l-0.12 -0.18 l-0.32 0 c-0.04 -0.18 -0.08 -0.42 -0.28 -0.42 c-0.16 0 -0.14 0.06 -0.14 0.18 c0.04 0 0.18 -0.06 0.2 -0.08 l0.04 0.04 l0 0.22 c-0.04 0.02 -0.06 0.02 -0.08 0.02 c-0.06 0 -0.16 -0.02 -0.18 -0.02 l0.02 0.02 l-0.04 0.04 c-0.28 0 -0.66 0.06 -0.78 0.06 c-0.4 -0.12 -0.36 -0.2 -0.36 -0.46 c0.08 -0.02 0.14 -0.32 0.48 -0.32 c0.1 -0.02 0.46 0.06 0.5 0.06 c0.06 0 0.12 -0.02 0.18 -0.06 l1.1 0 c0.02 0.02 0.02 0.06 0.04 0.06 c0.06 0 0.22 -0.06 0.34 -0.06 c0.18 0 0.3 0.02 0.34 0.04 l0.9 0 l0.04 -0.04 l1.06 0 l0.08 0.04 c0.04 -0.04 0.08 -0.04 0.12 -0.04 c0.24 0 0.3 0.04 0.38 0.04 c0.04 0 0.12 -0.04 0.12 -0.04 l0.98 0 c0.18 0 0.3 0.2 0.36 0.3 c0 0 -0.02 0.3 -0.04 0.32 l-0.2 0.1 c-0.92 0 -0.84 -0.06 -1.46 -0.06 c-0.18 0 -0.34 0.1 -0.34 0.76 c0 0.28 0.04 0.34 0.04 0.4 l0 0 s-0.04 0.4 -0.04 0.66 c0 0.12 -0.02 0.42 0.04 0.46 c-0.02 0.32 0.02 0.26 -0.04 0.32 c0 0.06 0.04 0.1 0.04 0.16 l0 1.44 c0 0.08 -0.06 0.22 -0.06 0.24 s0.02 0.06 0.06 0.12 l0 0.68 l-0.04 0.06 c0 0.38 0.04 0.46 0.04 0.68 l0 2.04 c-0.04 0.06 -0.04 0.1 -0.04 0.14 c0 0.32 0.04 0.36 0.04 0.48 c-0.02 0.08 -0.04 0.16 -0.04 0.22 c0 0.04 0 0.1 0.04 0.18 l0 1.9 c0 1.4 0.4 1.48 0.4 1.7 c-0.02 0.02 -0.04 0.04 -0.04 0.06 c0 0.12 0.36 0.3 0.38 0.52 c0 -0.02 0.44 0.52 0.78 0.52 c-0.04 0 0.58 0.32 1.16 0.32 c0.76 0 0.86 -0.02 1.06 -0.02 s0.96 0 1.06 -0.14 l0 0.02 c0.02 0 0.08 -0.22 0.3 -0.22 c0.78 0 1.52 -1.44 1.68 -1.6 c0 -1.2 0.32 -1.64 0.32 -2.28 c0 -1.08 -0.1 -3.76 -0.1 -4.06 c0 -0.04 0.06 -0.1 0.06 -0.18 l0 -1.68 c-0.02 -0.04 -0.06 -0.1 -0.06 -0.1 c0 -0.04 0.02 -0.06 0.06 -0.1 c0 -0.9 -0.06 -0.82 -0.06 -1.1 c0 -0.04 0.06 -0.1 0.06 -0.16 l0 -2.08 c0 -0.1 -0.04 -0.24 -0.2 -0.34 c-1.68 0 -1.04 0.06 -1.5 0.06 c-0.24 0 -0.34 -0.06 -0.34 -0.44 c0.14 -0.18 -0.3 -0.32 1.58 -0.32 c0.1 0 0.78 0.02 0.82 0.02 c0.04 0.02 0.16 0.06 0.14 0.06 c0.02 0 0.06 -0.02 0.14 -0.06 c0.02 0 1.44 -0.06 1.6 -0.06 c0.14 0 0.5 0 0.5 0.36 c0 0.48 -0.14 0.42 -0.3 0.42 c-0.08 0 -0.42 -0.02 -0.36 -0.1 l0.14 0 c-0.04 0 -0.04 -0.04 -0.08 -0.04 c-0.06 0 -0.26 0.1 -0.44 0.1 c-0.14 0 -0.28 -0.02 -0.42 -0.02 c-0.2 0 -0.58 0.04 -0.58 0.32 c0 0.3 0.1 1.78 0.1 3.42 c0 0.04 0 0.04 -0.02 0.08 l0 5 c-0.02 2.56 -0.4 3.12 -0.4 3.38 c0 0.68 -0.46 0.58 -0.46 0.76 c0.02 0.02 0.02 0.06 0.02 0.08 c0 0.14 -0.26 0.26 -0.36 0.38 c0 -0.06 0 -0.16 -0.16 -0.16 c-0.04 0 -0.12 0.04 -0.14 0.06 c0.26 0 0.1 0.18 0.24 0.18 c0 0.08 -0.28 0.2 -0.36 0.2 l0.02 0.04 c-0.02 0 -0.02 -0.02 -0.02 -0.02 c-0.02 0.06 0.08 0.34 -0.38 0.34 c-0.38 0 -0.32 0.16 -0.36 0.2 l0.06 0.02 c0 0.02 -0.2 0.16 -0.48 0.16 c-0.02 0 -0.02 -0.02 -0.04 -0.04 c-0.2 0 -0.14 0.2 -0.4 0.2 c-0.36 0.1 -0.92 0.2 -1.64 0.2 c-2.32 0 -3.52 -0.46 -3.52 -0.52 z M68.9 20.02 l0 0.04 c0.06 0.02 0 0.26 0.06 0.26 s0.14 0 0.14 -0.04 c0 -0.08 -0.08 -0.16 -0.08 -0.22 c0 -0.02 0 -0.02 0.02 -0.04 l-0.14 0 z M68.82000000000001 20.26 l0 0.04 l0.06 0 l-0.02 -0.04 l-0.04 0 z M69.46000000000001 20.14 c-0.04 0 -0.04 0.04 -0.04 0.08 l0.06 0 c0 -0.02 -0.02 -0.06 -0.02 -0.08 z M69.42 20.06 l-0.02 0.02 c0 0.02 0.02 0.02 0.02 0.02 c0.02 0 0.02 0 0.02 -0.02 c0 0 0 -0.02 -0.02 -0.02 z M68.42 19.98 c-0.02 0 -0.04 0 -0.06 0.02 l0.1 0 z M68.82000000000001 19.98 l0 0.02 l0.04 0 z M68.52000000000001 19.94 c0 0 -0.02 0.02 -0.02 0.04 l0.02 0.02 c0.02 0 0.02 -0.02 0.02 -0.02 c0 -0.02 0 -0.04 -0.02 -0.04 z M68.08 19.9 l0 0.04 l0.06 0 l-0.02 -0.04 l-0.04 0 z M69.2 19.9 c-0.02 0 -0.02 0.02 -0.02 0.04 s0 0.04 0.02 0.04 s0.02 -0.02 0.02 -0.04 s0 -0.04 -0.02 -0.04 z M71.04 19.58 c-0.2 0 -0.18 0.16 -0.18 0.26 c0.14 -0.28 0.16 -0.16 0.2 -0.26 l-0.02 0 z M70.5 19.7 c-0.02 0 -0.04 0.02 -0.04 0.04 s0.02 0.04 0.04 0.04 l0 -0.08 z M71.80000000000001 19.48 c-0.02 0 -0.04 0.02 -0.04 0.04 c0 0 0.02 0.02 0.04 0.02 s0.02 -0.02 0.02 -0.02 c0 -0.02 0 -0.04 -0.02 -0.04 z M71.64 19.24 c-0.08 0 -0.06 0 -0.08 0.02 c0.16 0 0.1 0 0.16 -0.02 l-0.08 0 z M72.10000000000001 19.2 c-0.02 0 -0.02 0.02 -0.02 0.04 c0 0 0 0.02 0.02 0.02 s0.02 -0.02 0.02 -0.02 c0 -0.02 0 -0.04 -0.02 -0.04 z M66.56 19.12 c-0.02 0 -0.02 0.02 -0.02 0.04 s0 0.04 0.02 0.04 c0 0 0.02 -0.02 0.02 -0.04 s-0.02 -0.04 -0.02 -0.04 z M72.22 19 c-0.02 0 -0.02 0.02 -0.02 0.04 s0 0.04 0.02 0.04 s0.02 -0.02 0.02 -0.04 s0 -0.04 -0.02 -0.04 z M72.7 18.64 c-0.04 0 -0.12 0.1 -0.12 0.14 c0.16 0 0.08 -0.1 0.16 -0.14 l-0.04 0 z M64.12 18.54 l0.02 0.04 l0 -0.06 z M72.82000000000001 18.42 l-0.04 0.1 l0.08 -0.06 c-0.02 -0.02 -0.02 -0.04 -0.04 -0.04 z M63.6 18.06 c-0.02 0 -0.04 0.02 -0.04 0.04 s0.02 0.04 0.04 0.04 s0.02 -0.02 0.02 -0.04 s0 -0.04 -0.02 -0.04 z M72.74000000000001 17.82 l-0.02 0.02 c0 0.02 0.02 0.02 0.06 0.02 c0.06 0 0.06 -0.1 0.06 -0.12 c-0.12 0 -0.1 0.1 -0.1 0.08 z M73.22 17.740000000000002 l-0.02 -0.02 z M73.22 17.12 c-0.04 0.1 -0.02 0.14 -0.02 0.14 c0.02 -0.02 0.02 0.02 0.02 -0.14 z M63.220000000000006 17 c-0.02 0 -0.04 0.02 -0.04 0.02 c0 0.02 0.02 0.02 0.04 0.02 c0 0 0.02 0 0.02 -0.02 z M73.36 16.88 c0.02 0.04 0.04 0.04 0.08 0.04 c0 -0.02 -0.02 -0.08 -0.02 -0.12 c-0.04 0 -0.04 0.04 -0.06 0.08 z M63.18000000000001 16.64 c0 0.1 0.06 0.2 0.06 0.2 l0 -0.2 l-0.06 0 z M73.38000000000001 16.38 c-0.14 0 -0.04 0.18 -0.12 0.2 c0.12 0 0.14 -0.02 0.18 -0.02 c0 -0.06 -0.06 -0.1 -0.06 -0.18 z M73.14 16.22 c0.04 0.02 0.06 0.04 0.06 0.08 l0.02 -0.04 c0 -0.04 0 -0.04 -0.02 -0.06 z M63.56 16.18 c0 -0.02 -0.02 -0.02 -0.02 -0.02 c-0.02 0 -0.02 0 -0.02 0.02 s0 0.02 0.02 0.02 c0 0 0.02 0 0.02 -0.02 z M73.52000000000001 15.74 l-0.04 0.04 l0.04 0 l0 -0.04 z M73.14 14.68 c-0.02 0 -0.04 0.02 -0.04 0.04 s0.02 0.04 0.04 0.04 c0 0 0.02 -0.02 0.02 -0.04 s-0.02 -0.04 -0.02 -0.04 z M73.2 14.219999999999999 c-0.02 0 -0.04 0 -0.04 0.02 c0 0 0.02 0.02 0.04 0.02 l0 -0.04 z M73.2 14.04 c-0.02 0 -0.04 0.02 -0.04 0.04 c0 0 0.02 0.02 0.04 0.02 l0 -0.06 z M73.52000000000001 14.04 c-0.02 0 -0.04 0 -0.04 0.02 l0.04 0 l0.02 0 c0 -0.02 0 -0.02 -0.02 -0.02 z M73.14 13.98 c0 0.06 0 0.06 0.02 0.06 l0.04 -0.02 l-0.06 -0.04 l0 0 z M63.14000000000001 13.780000000000001 c-0.02 0 -0.02 0.02 -0.02 0.04 s0 0.04 0.02 0.04 s0.02 -0.02 0.02 -0.04 s0 -0.04 -0.02 -0.04 z M73.52000000000001 13.5 l0 0.06 l0.04 0 c0 -0.04 -0.02 -0.06 -0.04 -0.06 z M63.14000000000001 9.7 l0 0.02 l0.1 0 c-0.04 -0.04 -0.08 -0.02 -0.1 -0.02 z M73.52000000000001 9.48 c0 0.04 -0.02 0.16 0.04 0.16 l0 0.08 z M73.52000000000001 8.64 l-0.04 0 c0 0.02 0.02 0.02 0.04 0.02 s0.02 0 0.02 -0.02 l-0.02 0 z M61.06 5.539999999999999 c0.02 0.04 0.08 0.04 0.12 0.06 l0.04 -0.02 c-0.02 -0.04 -0.06 -0.04 -0.16 -0.04 z M61.64000000000001 5.6 c0 -0.02 -0.02 -0.02 -0.02 -0.02 c-0.02 0 -0.02 0 -0.02 0.02 s0 0.04 0.02 0.04 c0 0 0.02 -0.02 0.02 -0.04 z M62.760000000000005 5.58 c0 0 -0.02 0 -0.02 0.02 s0.02 0.04 0.02 0.04 s0.02 -0.02 0.02 -0.04 s-0.02 -0.02 -0.02 -0.02 z M61.32000000000001 5.539999999999999 l0.02 0.04 c0.12 0 0.1 -0.04 0.1 -0.1 z M66.94 5.52 l0 0.02 l0.16 0 c-0.06 -0.02 -0.14 -0.02 -0.16 -0.02 z M71.26 5.52 c-0.02 0 -0.04 0 -0.04 0.02 l0.04 0 l0.02 0 c0 -0.02 0 -0.02 -0.02 -0.02 z M72.84 5.48 l0 0.04 s0 0.02 0.02 0.02 c0 0 0.02 -0.02 0.04 -0.06 l-0.06 0 z M74.10000000000001 5.4399999999999995 c0.02 0.1 0.06 0.08 0.22 0.08 c-0.06 0 -0.1 -0.08 -0.16 -0.14 c-0.04 0 -0.08 0.02 -0.08 0.04 z M71.10000000000001 5.279999999999999 l0 0.2 l0.04 0 c0.02 -0.02 -0.04 -0.12 -0.04 -0.2 z M75.36 5.08 c0 0.18 0.18 0.18 0.18 0.32 l0.06 0 c0 -0.16 -0.14 -0.18 -0.18 -0.36 c-0.06 0 -0.06 0.02 -0.06 0.04 z M73.2 5.24 c0 0.06 0.04 0.1 0.1 0.12 l0.08 -0.08 c0.24 0 0.12 0.04 0.32 0.04 c0.06 0 0.14 -0.02 0.14 -0.1 c-0.02 0 -0.2 0.02 -0.26 0.02 c-0.04 0 -0.08 -0.02 -0.1 -0.02 s-0.06 0 -0.12 0.02 l-0.1 -0.02 z M62.46000000000001 5.279999999999999 c-0.02 0 -0.02 0.02 -0.02 0.04 s0 0.04 0.02 0.04 s0.02 -0.02 0.02 -0.04 s0 -0.04 -0.02 -0.04 z M63.080000000000005 5.24 l0 0.04 l0.06 0 l0 -0.04 l-0.06 0 z M74.74000000000001 5.279999999999999 l-0.04 0 l0.04 0 z M61.96000000000001 5.24 l-0.04 -0.02 l0.04 0.06 l0 -0.04 z M66.46000000000001 5.220000000000001 c-0.02 0 -0.04 0 -0.04 0.02 s0.02 0.04 0.04 0.04 s0.02 -0.02 0.02 -0.04 s0 -0.02 -0.02 -0.02 z M67.18 5.199999999999999 l0 0.02 l0.02 0 z M67.30000000000001 5.220000000000001 l-0.02 -0.02 c-0.02 0 -0.02 0.02 -0.02 0.02 s0 0.02 0.02 0.02 z M72.46000000000001 5.220000000000001 l-0.02 -0.02 c-0.02 0 -0.02 0.02 -0.02 0.02 s0 0.02 0.02 0.02 z M74.12 5.199999999999999 l0 0.02 l0.08 0 c-0.06 -0.02 -0.08 -0.02 -0.08 -0.02 z M61.220000000000006 5.199999999999999 c0 -0.02 -0.04 -0.02 -0.08 -0.02 c-0.02 0 -0.04 0 -0.04 0.02 c0 0 0.02 0.02 0.04 0.02 s0.06 0 0.08 -0.02 z M67.62 5.16 c-0.04 0 -0.08 0 -0.1 0.04 l0.1 0 l0 -0.04 z M71.22 5.16 c0 0 -0.02 0.02 -0.02 0.04 l0.02 0.02 c0.02 0 0.02 -0.02 0.02 -0.02 c0 -0.02 0 -0.04 -0.02 -0.04 z M71.30000000000001 5.16 l0 0.04 c0.02 0 0.04 -0.02 0.06 -0.04 l-0.06 0 z M76.22 19.68 c0.1 -0.28 0.16 -0.34 0.38 -0.34 c0.66 0 0.8 0.06 1.28 0.06 c0.18 0 0.26 -0.16 0.34 -0.26 l-0.04 -3.08 c0 -0.04 0.04 -0.1 0.04 -0.14 c0 0.02 -0.04 -0.28 -0.04 -0.36 c0 -0.02 -0.02 -0.4 0.04 -0.58 c0 -0.02 -0.04 -0.08 -0.04 -0.12 l0 -1.42 c0.04 -0.04 0.04 -0.1 0.04 -0.14 c0 -0.12 -0.04 -0.18 -0.04 -0.28 c0 0 -0.06 -4.8 -0.06 -6.36 l0.04 -0.08 l0 -0.94 c-0.14 -0.2 -0.6 -0.06 -0.66 -0.16 l-0.12 0.04 l0 0.02 c-0.04 0 -0.16 -0.06 -0.38 -0.06 c-0.04 0 -0.24 0.04 -0.28 0.08 c-0.32 0 -0.54 0.06 -0.54 -0.36 c0 -0.16 0.1 -0.38 0.76 -0.38 c0.08 0 0.26 0.04 0.38 0.04 c0.08 0 1.12 -0.04 1.14 -0.04 c0.14 0 0.38 0.06 0.46 0.06 c0.08 0.02 1.12 -0.08 1.6 -0.08 c0.06 0 0.04 0.18 0.18 0.18 c0 0 0.02 0 0.02 -0.02 s-0.02 -0.06 -0.02 -0.1 c0.22 0 0.44 -0.06 0.76 -0.12 c0.02 0.02 0.1 0.04 0.08 0.06 c0.02 0 0.06 -0.04 0.06 -0.08 c0.02 0 0.12 0.02 0.16 0.06 c0.1 -0.02 0.36 -0.08 0.38 -0.08 c0.78 0 0.82 0.36 0.82 0.56 c0 0.1 -0.14 0.3 -0.24 0.3 c-0.4 0 -1.16 -0.1 -1.34 -0.1 c-0.16 0 -0.24 0.26 -0.26 0.38 l0.02 6.7 c0 0.1 -0.02 0.38 -0.02 0.42 c0 0.02 0.02 -0.02 0.02 0.3 c0 0.7 -0.02 0.98 -0.02 1.36 c0 0.54 0.02 0.48 0.02 0.62 l0 2.32 c0 0.1 -0.06 1.68 0.24 1.74 c0.04 0 0.76 0.02 1.1 -0.02 l0.04 -0.04 l0.36 0 c0.22 0.1 0.26 0.3 0.26 0.38 c0 0.1 -0.16 0.34 -0.22 0.34 c-0.94 0 -2.38 0.06 -2.58 0.06 c0 0 -0.6 -0.04 -0.9 -0.04 c-0.88 0 -2 0.06 -2.64 0.06 c-0.52 0 -0.58 -0.16 -0.58 -0.36 z M76.64 19.92 c0 -0.02 -0.02 -0.02 -0.04 -0.02 s-0.04 0 -0.04 0.02 s0.02 0.04 0.04 0.04 s0.04 -0.02 0.04 -0.04 z M76.76 19.88 c0.08 0 0.12 0.04 0.2 0.04 c0.04 0 0.1 0 0.16 -0.04 c-0.14 0 -0.18 -0.14 -0.24 -0.16 c-0.02 0 -0.12 0 -0.12 0.12 l0 0.04 z M77.16000000000001 19.88 c-0.02 0 -0.04 0.02 -0.04 0.04 s0.02 0.04 0.04 0.04 c0 0 0.02 -0.02 0.02 -0.04 s-0.02 -0.04 -0.02 -0.04 z M77.66000000000001 19.84 l0.04 0.04 c0.1 0 0.12 0 0.16 -0.04 l-0.04 -0.02 c-0.18 0 -0.12 0 -0.16 0.02 z M81.96000000000001 19.68 c-0.12 0.04 -0.1 0.08 -0.1 0.2 c0.1 -0.04 0.08 -0.1 0.12 -0.2 l-0.02 0 z M82.64 19.68 c-0.14 0 -0.14 0.14 -0.16 0.2 l0.24 0 c0 -0.14 -0.04 -0.2 -0.08 -0.2 z M81.14 19.82 l-0.06 0.02 c0 0.02 0 0.02 0.02 0.02 z M81.38000000000001 19.84 l-0.04 -0.02 z M82.88000000000001 19.64 l0 0.12 c0.06 0.02 0.1 -0.08 0.1 -0.12 l-0.1 0 z M76.52000000000001 19.52 c-0.14 0 -0.14 0.14 -0.14 0.2 c0.08 -0.06 0.2 -0.04 0.22 -0.08 c0 -0.02 0.02 -0.12 -0.08 -0.12 z M78.02000000000001 19.66 l0.04 0.06 l0 -0.06 l-0.04 0 z M76.84 19.56 l0 0.04 l0.04 -0.04 l-0.04 0 z M82.44000000000001 19.52 c0 0.02 -0.02 0.02 -0.02 0.04 s0.02 0.02 0.06 0.04 l0.04 -0.04 l-0.04 -0.08 c-0.02 0 -0.04 0.02 -0.04 0.04 z M82.76 19.56 c0.02 0.04 0.06 0.04 0.1 0.04 c0 -0.02 -0.02 -0.06 -0.02 -0.1 z M78.44000000000001 19.3 c-0.02 0.02 -0.02 0.02 -0.02 0.04 s0.06 0.02 0.1 0.02 l0 -0.06 l-0.08 0 z M80.80000000000001 6.4 c-0.02 0 -0.04 0 -0.04 0.02 l0.04 0 l0.02 0 c0 -0.02 0 -0.02 -0.02 -0.02 z M81.82000000000001 5.32 c-0.02 0 -0.04 0.02 -0.04 0.04 s0.02 0.04 0.04 0.04 s0.02 -0.02 0.02 -0.04 s0 -0.04 -0.02 -0.04 z M76.32000000000001 5.140000000000001 c-0.02 0 -0.04 0.02 -0.04 0.04 c0 0 0.02 0.02 0.04 0.02 s0.02 -0.02 0.02 -0.02 c0 -0.02 0 -0.04 -0.02 -0.04 z M77.46000000000001 5.039999999999999 c-0.02 0 -0.04 0.02 -0.04 0.04 c0 0 0.02 0.02 0.04 0.02 l0 -0.06 z M77.74000000000001 5.039999999999999 c0 0.02 -0.02 0.02 -0.02 0.02 c0 0.02 0.02 0.02 0.06 0.04 l0 -0.06 l-0.04 0 z M76.48 5.02 c-0.08 0 -0.06 0.02 -0.06 0.06 c0.04 0 0.08 0 0.1 -0.04 z"></path></g>
			</g>
		</svg>
	