
        <svg xmlns="http://www.w3.org/2000/svg" xmlns:xlink="http://www.w3.org/1999/xlink" version="1.1" width="3171.4285714285716" 
        height="1447.175027875301" viewBox="0 0 3171.4285714285716 1447.175027875301">
			<rect fill="#07305d" width="3171.4285714285716" height="1447.175027875301"/>
			<g transform="scale(8.571428571428571) translate(10, 10)">
				<defs id="SvgjsDefs1011"></defs><g id="SvgjsG1012" featureKey="1p4tPl-0" transform="matrix(55.9204725971125,0,0,55.9204725971125,107,-0.00048778126607141984)" fill="#eaa159"><defs xmlns="http://www.w3.org/2000/svg"></defs><g xmlns="http://www.w3.org/2000/svg"><path class="fil0" d="M0.636937 0.114185l-0.00427262 -0.00202387c0.00134925,0.000562186 0.00277005,0.00124703 0.00427262,0.00202387zm-0.636937 0.853246c0.226357,-0.144042 0.694351,-0.44102 0.497596,-0.761211 -0.242773,-0.395064 -0.412338,0.264524 -0.164629,0.16379 0.0700587,-0.0284875 0.128219,-0.140557 0.0565866,-0.181699 0.0233665,-0.0134516 0.0451896,0.0252779 0.0492475,0.0451691 0.0533873,0.261693 -0.386069,0.224997 -0.272047,-0.0780621 0.133933,-0.355946 0.658882,0.0769787 0.342791,0.465603 -0.194169,0.175678 -0.267141,0.256091 -0.509545,0.346409zm0.632664 -0.85527c0.00146168,0.000654181 0.0028416,0.00135947 0.00427262,0.00202387 0.00698133,0.00320957 0.0137889,0.00656225 0.0204431,0.0100376 0.0305216,0.0159048 0.0577314,0.034416 0.0823245,0.0549307 0.246892,0.205995 0.231876,0.610095 0.702273,0.526636l0.0752512 -0.0078195c-0.0432884,0.0267192 -0.0798203,0.0525491 -0.126676,0.0686583 -0.423541,0.145719 -0.546721,-0.41288 -0.757889,-0.654467zm-0.246033 -0.0966654c0.299431,-0.0757725 0.695936,0.137807 0.87373,0.39444 0.276892,0.399684 0.267764,-0.0365523 0.377503,0.161439 0.138461,0.249795 0.391558,0.117405 0.406318,0.139524 0.117507,0.176199 0.18912,0.175392 0.38983,0.206742 -0.189815,0.00651114 -0.302559,-0.0246749 -0.410345,-0.181218 -0.221256,0.070815 -0.314538,0.00789105 -0.437493,-0.16701 -0.0747197,0.0428693 -0.124018,0.0676975 -0.16929,0.0616054 -0.0327499,-0.00441572 -0.0634044,-0.0250531 -0.100039,-0.0667673 -0.0274654,-0.0312678 -0.0582834,-0.0743722 -0.0958988,-0.131419 -0.175985,-0.266936 -0.518428,-0.436073 -0.834315,-0.417337zm0.556513 0.954869l0.00955717 -0.0565151 0.0114993 -0.0439834c0.337751,0.00671557 0.282555,0.043779 0.583979,-0.0099967l0.0305625 -0.0037411c-0.034876,0.0239185 -0.0162932,0.0134005 -0.0559427,0.0311247l0.00195232 -0.000449749c-0.20297,0.0848799 -0.314824,0.0502288 -0.537215,-0.00390464 -0.023203,0.0552067 -0.00903587,0.025697 -0.0443923,0.087466zm-0.123017 -0.00879055c0.114011,-0.19931 0.0372678,-0.338518 0.134823,-0.230783 0.102778,0.113511 0.389595,0.13748 0.553713,0.0290395 0.157126,-0.103831 0.0604197,0.00299492 0.44149,0.108952l0.0210769 0.00785017c-0.209573,0.00866789 -0.261928,-0.0801371 -0.38753,-0.122812l-0.0507092 0.0402014c-0.196111,0.141845 -0.522486,0.0841849 -0.611138,-0.0555134 -0.0243784,0.063895 -0.0476734,0.191051 -0.101725,0.223065zm0.757378 -0.209798l-0.000235096 -7.1551e-005 -2.04431e-005 3.06647e-005 0.000255539 4.08863e-005zm-0.833538 0.189293c0.0324126,-0.12873 0.0585185,-0.260384 0.0937318,-0.386621 0.0346102,0.183365 6.13294e-005,0.231079 -0.0937318,0.386621zm-0.12595 -0.00292337c0.0860247,-0.199576 0.110209,-0.267601 0.17575,-0.468639 0.0497791,0.179399 -0.0710093,0.342443 -0.17575,0.468639zm-0.181596 0.0205045c0.0426035,-0.0593158 0.108502,-0.149726 0.154611,-0.209 0.0505559,-0.107909 0.179828,-0.353002 0.126574,-0.47932 0.00594895,-0.00278027 0.0113357,0.00407841 0.0140342,0.00869856 0.107694,0.185051 -0.108328,0.55912 -0.295219,0.679622zm-0.114226 -0.00879055c0.18084,-0.27954 0.423173,-0.485382 0.237253,-0.828908l0.00779906 0.00205454 0.0079115 0.0063987c0.278804,0.262408 -0.080178,0.644961 -0.252963,0.820455zm0.187351 -0.328838c-0.00134925,0.00164567 -0.00257584,0.00330157 -0.00394553,0.00494724l0.00638848 -0.00716532 -0.00244296 0.00221808z" style="fill: #eaa159;"></path></g></g><g id="SvgjsG1013" featureKey="dYASrj-0" transform="matrix(5.240692085921157,0,0,5.240692085921157,-3.851531728025431,42.555847484473055)" fill="#ffffff"><path d="M3.8 13 c0 1.48 5.22 0.1 5.22 4 c0 2.3 -1.96 3.28 -4.16 3.28 c-2.04 0 -3.88 -0.92 -4.12 -3.04 c-0.04 -0.34 0.16 -0.52 0.48 -0.52 l1.96 0 c0.3 0 0.4 0.16 0.54 0.42 c0.16 0.34 0.54 0.54 1.14 0.54 c0.84 0 1.16 -0.28 1.16 -0.68 c0 -1.44 -5.22 -0.12 -5.22 -4 c0 -2.26 1.96 -3.28 4.06 -3.28 c1.86 0 3.68 0.92 3.92 3.04 c0.04 0.34 -0.16 0.52 -0.48 0.52 l-1.96 0 c-0.3 0 -0.4 -0.16 -0.54 -0.44 c-0.14 -0.32 -0.48 -0.52 -0.94 -0.52 c-0.74 0 -1.06 0.28 -1.06 0.68 z M16.42 9.72 c1.86 0 3.2 1.44 3.2 3.94 l0 5.84 c0 0.32 -0.18 0.5 -0.5 0.5 l-2 0 c-0.32 0 -0.5 -0.18 -0.5 -0.5 l0 -5.58 c0 -1 -0.58 -1.44 -1.34 -1.44 c-0.9 0 -1.46 0.5 -1.46 1.68 l0 5.34 c0 0.32 -0.18 0.5 -0.5 0.5 l-2 0 c-0.32 0 -0.5 -0.18 -0.5 -0.5 l0 -13 c0 -0.32 0.18 -0.5 0.5 -0.5 l2 0 c0.32 0 0.5 0.18 0.5 0.5 l0 4.4134 c0.47 -0.695 1.3214 -1.1934 2.6 -1.1934 z M26.36 20.28 c-2.94 0 -5.3 -2.3 -5.3 -5.28 s2.36 -5.28 5.3 -5.28 s5.3 2.3 5.3 5.28 s-2.36 5.28 -5.3 5.28 z M26.36 17.36 c1.3 0 2.3 -0.94 2.3 -2.36 s-1 -2.36 -2.3 -2.36 s-2.3 0.94 -2.3 2.36 s1 2.36 2.3 2.36 z M38.440000000000005 9.84 c0.34 -0.06 0.52 0.1598 0.52 0.4798 l0 2.36 c0 0.32 -0.14 0.48 -0.4 0.48 c-1.12 -0.04 -2.2 0.52 -2.2 2.12 l0 4.22 c0 0.32 -0.18 0.5 -0.5 0.5 l-2 0 c-0.32 0 -0.5 -0.18 -0.5 -0.5 l0 -9 c0 -0.32 0.18 -0.5 0.5 -0.5 l2 0 c0.32 0 0.5 0.18 0.5 0.5 l0 1.081 c0.2984 -1.004 1.0864 -1.5918 2.08 -1.7408 z M45.120000000000005 9.72 c2.92 0 5.04 2.26 5.04 5.28 c0 0.26 -0.02 0.5 -0.04 0.74 c-0.04 0.32 -0.24 0.46 -0.54 0.46 l-2.44 0 l-4.2388 0 c0.3634 1.1882 1.2966 1.66 2.3388 1.66 c0.56 0 1.12 -0.2 1.48 -0.5 c0.2 -0.16 0.36 -0.26 0.62 -0.26 l1.92 -0.02 c0.36 0 0.56 0.24 0.4 0.56 c-0.78 1.74 -2.42 2.64 -4.46 2.64 c-3.32 0 -5.44 -2.3 -5.44 -5.28 s2.2 -5.28 5.36 -5.28 z M42.888600000000004 13.92 l4.285 0 c-0.3092 -1.138 -1.1914 -1.54 -2.0736 -1.54 c-1.1244 0 -1.9024 0.5426 -2.2114 1.54 z M56.92000000000001 20.28 c-2.88 0 -5.2 -1.6 -5.2 -4.6 l0 -9.18 c0 -0.32 0.18 -0.5 0.5 -0.5 l2.2 0 c0.32 0 0.5 0.18 0.5 0.5 l0 8.9 c0 1.06 0.5 1.76 2 1.76 s2 -0.7 2 -1.76 l0 -8.9 c0 -0.32 0.18 -0.5 0.5 -0.5 l2.2 0 c0.32 0 0.5 0.18 0.5 0.5 l0 9.18 c0 3 -2.32 4.6 -5.2 4.6 z M64.32000000000001 6.5 c0 -0.32 0.18 -0.5 0.5 -0.5 l2.2 0 c0.32 0 0.5 0.18 0.5 0.5 l0 13 c0 0.32 -0.18 0.5 -0.5 0.5 l-2.2 0 c-0.32 0 -0.5 -0.18 -0.5 -0.5 l0 -13 z"></path></g>
			</g>
		</svg>
	